<svg width="512" height="512" xmlns="http://www.w3.org/2000/svg">
<path d="m 134.26085,185.66972 c 18.82408,0 36.45967,5.00314 51.7315,13.68864 3.13466,2.30115 6.94073,4.19078 9.69539,6.24235 18.32619,10.61689 39.13395,16.19899 60.31336,16.18029 21.97944,0 42.56091,-5.91822 60.31337,-16.18029 3.35754,-2.1511 6.52249,-4.53584 9.69318,-6.24235 15.27183,-8.6855 32.90742,-13.68864 51.7315,-13.68864 57.90771,0 104.85216,46.94445 104.85216,104.85436 0,57.90992 -46.94445,104.84996 -104.85216,104.84996 -55.26612,0 -100.51272,-42.76377 -104.53023,-97.00457 l -0.16317,0.2205 c 1.2789,24.02348 12.08781,163.00242 92.1227,197.02557 H 256.0011 146.83155 c 80.03489,-34.02315 90.846,-173.00209 92.1249,-197.02557 l -0.16537,-0.2205 c -4.01751,54.2408 -49.26191,97.00457 -104.53023,97.00457 -57.907711,0 -104.85216,-46.94225 -104.85216,-104.84996 0,-57.90771 46.94445,-104.85436 104.85216,-104.85436" fill="#2196f3" style="stroke-width:2.205" />
<path d="m 255.96727,203.31947 c -38.82311,0.53921 -76.26444,-24.41444 -90.9704,-60.29965 -15.3538,-35.25308 -7.40882,-79.04489 19.50332,-106.546848 25.8938,-27.8693284 68.5552,-38.0384513 104.27643,-25.030965 37.02596,12.578191 64.32426,48.951073 65.79106,88.06792 2.4579,38.025773 -19.58215,76.034763 -53.65351,93.008853 -13.84157,7.11295 -29.38815,10.82439 -44.9469,10.80069 z" fill="#2196f3" style="stroke-width:2.205" />
</svg>
